<svg xmlns="http://www.w3.org/2000/svg" viewBox="0 0 27.67 34.63"><defs><style>.cls-1{fill:#f5b506;}</style></defs><title>bolsa</title><g id="Capa_2" data-name="Capa 2"><g id="Capa_1-2" data-name="Capa 1"><path class="cls-1" d="M27.67,30l-2-22.46a.85.85,0,0,0-.86-.78h-4.2a6.78,6.78,0,0,0-13.56,0H2.85A.86.86,0,0,0,2,7.56L0,30v.08c0,2.5,2.3,4.54,5.13,4.54H22.54c2.82,0,5.13-2,5.13-4.54ZM13.91,1.51a5.27,5.27,0,0,1,5.27,5.26H8.65a5.27,5.27,0,0,1,5.27-5.26ZM22.75,33.2H4.91a3.24,3.24,0,0,1-3.49-2.85l2-22.15H6.89v3.09a.88.88,0,0,0,1.76,0V8.2H19v3.09a.88.88,0,0,0,1.76,0V8.2h3.49l2,22.16c0,1.57-1.58,2.84-3.49,2.84Zm-.21-.3"/></g></g></svg>