<svg xmlns="http://www.w3.org/2000/svg" viewBox="0 0 123 40"><defs><style>.cls-1{fill:#fff;opacity:0.75;}.cls-2{fill:#333;}</style></defs><title>editar</title><g id="Capa_2" data-name="Capa 2"><g id="Capa_1-2" data-name="Capa 1"><path class="cls-1" d="M13.83,0H123a0,0,0,0,1,0,0V40a0,0,0,0,1,0,0H0a0,0,0,0,1,0,0V13.83A13.83,13.83,0,0,1,13.83,0Z"/><path class="cls-2" d="M19.86,14.48a.57.57,0,0,0,.56-.45l.19-.84a2.27,2.27,0,0,1,2.22-1.76h3.33a2.27,2.27,0,0,1,2.22,1.76l.19.84a.58.58,0,0,0,.56.45h4.19A1.52,1.52,0,0,1,34.85,16V26.15a1.66,1.66,0,0,1-1.66,1.66H15.81a1.66,1.66,0,0,1-1.66-1.66V16a1.52,1.52,0,0,1,1.52-1.52Zm0,0M13,16V26.15A2.81,2.81,0,0,0,15.81,29H33.19A2.81,2.81,0,0,0,36,26.15V16a2.67,2.67,0,0,0-2.67-2.67H29.59l-.09-.39a3.41,3.41,0,0,0-3.34-2.65H22.83a3.42,3.42,0,0,0-3.34,2.65l-.09.39H15.67A2.68,2.68,0,0,0,13,16Z"/><path class="cls-2" d="M17.66,16.93a.77.77,0,1,1-.77-.77.77.77,0,0,1,.77.77Zm0,0"/><path class="cls-2" d="M24.5,26a4.83,4.83,0,1,0-4.83-4.83A4.84,4.84,0,0,0,24.5,26Zm0-8.51a3.68,3.68,0,1,1-3.68,3.68,3.69,3.69,0,0,1,3.68-3.68Zm0,0"/><path class="cls-2" d="M48.54,14.06h9v.86h-8v5H56.7v.86H49.48V25.8H57.6v.86H48.54Z"/><path class="cls-2" d="M60.6,14.06h4.19c4,0,6.7,2.72,6.7,6.27v0c0,3.55-2.74,6.3-6.7,6.3H60.6ZM64.79,25.8a5.35,5.35,0,0,0,5.73-5.4v0a5.39,5.39,0,0,0-5.73-5.44H61.54V25.8Z"/><path class="cls-2" d="M74.8,14.06h.94v12.6H74.8Z"/><path class="cls-2" d="M83.1,14.93H78.71v-.86h9.72v.86H84V26.67H83.1Z"/><path class="cls-2" d="M94.44,14h.9l5.87,12.69h-1l-1.6-3.53H91.15l-1.6,3.53h-1Zm3.75,8.32L94.87,15l-3.33,7.29Z"/><path class="cls-2" d="M103.87,14.06h5.29a5,5,0,0,1,3.55,1.24,3.32,3.32,0,0,1,1,2.34v0c0,2.11-1.57,3.31-3.69,3.6l4.16,5.38h-1.19l-4-5.22h-4.12v5.22h-.94Zm5.19,6.54c2.11,0,3.67-1.06,3.67-2.88v0c0-1.69-1.33-2.75-3.62-2.75h-4.3V20.6Z"/></g></g></svg>