<svg xmlns="http://www.w3.org/2000/svg" viewBox="0 0 740.57 114.51"><defs><style>.cls-1{fill:#ffd015;}.cls-2{fill:#fff;}</style></defs><title>Recurso 5</title><g id="Capa_2" data-name="Capa 2"><g id="Capa_1-2" data-name="Capa 1"><path class="cls-1" d="M85.71,0H40.83A18.4,18.4,0,0,0,24.9,9.19L2.46,48.06a18.41,18.41,0,0,0,0,18.39L24.9,105.31a18.41,18.41,0,0,0,15.93,9.2H85.71a18.4,18.4,0,0,0,15.92-9.2l22.44-38.86a18.41,18.41,0,0,0,0-18.39L101.63,9.19A18.39,18.39,0,0,0,85.71,0Z"/><polygon class="cls-2" points="99.95 39.33 99.95 90.91 73.98 90.91 73.98 50.42 51.83 50.42 51.83 90.91 25.85 90.91 25.85 39.33 62.9 19.02 99.95 39.33"/><path class="cls-2" d="M160.94,33.7H171.1V52h18.75V33.7H200V79.91H189.85V61.36H171.1V79.91H160.94Z"/><path class="cls-2" d="M208.39,56.94v-.13c0-13.14,10.37-23.9,24.62-23.9S257.5,43.54,257.5,56.67v.14c0,13.13-10.36,23.89-24.62,23.89S208.39,70.07,208.39,56.94Zm38.48,0v-.13c0-7.92-5.8-14.53-14-14.53S219,48.75,219,56.67v.14c0,7.92,5.81,14.52,14,14.52S246.87,64.86,246.87,56.94Z"/><path class="cls-2" d="M263.83,56.94v-.13a23.72,23.72,0,0,1,24.22-23.9c8.32,0,13.34,2.25,18.16,6.34L299.81,47c-3.57-3-6.74-4.69-12.08-4.69-7.4,0-13.27,6.54-13.27,14.39v.14c0,8.44,5.81,14.65,14,14.65A16.19,16.19,0,0,0,298,68.69v-6.6H287.79V53.31h20.07V73.37a30,30,0,0,1-19.74,7.33C273.73,80.7,263.83,70.6,263.83,56.94Z"/><path class="cls-2" d="M332.8,33.37h9.38L362,79.91H351.35l-4.22-10.36H327.59l-4.23,10.36H313Zm10.7,27.2-6.14-15-6.14,15Z"/><path class="cls-2" d="M368.44,33.7h21.12c5.88,0,10.43,1.65,13.47,4.69A14.51,14.51,0,0,1,407,49v.13c0,7.46-4,12.15-9.9,14.33l11.29,16.5H396.49l-9.9-14.79h-8V79.91H368.44ZM388.9,56.15c5,0,7.79-2.64,7.79-6.54v-.13c0-4.36-3-6.6-8-6.6H378.61V56.15Z"/><path class="cls-1" d="M456.84,74.07l2.24-2.57c5.08,4.69,9.77,6.86,16.56,6.86s11.69-3.89,11.69-9.17v-.13c0-4.89-2.58-7.72-13.07-9.84-11.09-2.24-15.58-6-15.58-13v-.13C458.68,39.23,465,34,473.53,34a23,23,0,0,1,15.84,5.61l-2.18,2.7a19.88,19.88,0,0,0-13.79-5.21c-6.8,0-11.28,3.89-11.28,8.71v.13c0,4.89,2.5,7.86,13.46,10.1,10.69,2.18,15.18,6,15.18,12.74v.13c0,7.46-6.4,12.6-15.31,12.6C468.05,81.46,462.38,79,456.84,74.07Z"/><path class="cls-1" d="M501.39,34.61h16.76c10.16,0,17.16,5.21,17.16,14.12v.13c0,9.7-8.38,14.72-18,14.72H504.82V80.8h-3.43Zm16.1,25.8c8.58,0,14.39-4.49,14.39-11.35v-.13c0-7.33-5.68-11.15-14-11.15H504.82V60.41Z"/><path class="cls-1" d="M557.75,34.28h3.3L582.56,80.8H578.8l-5.87-12.93H545.67L539.8,80.8h-3.57Zm13.73,30.49L559.33,38,547.12,64.77Z"/><path class="cls-1" d="M587,57.84v-.13c0-13.07,9.77-23.89,23.1-23.89,8.25,0,13.2,3,17.95,7.39l-2.45,2.51c-4-3.9-8.64-6.8-15.57-6.8-11.09,0-19.47,9-19.47,20.65v.14c0,11.68,8.52,20.78,19.54,20.78,6.66,0,11.22-2.57,15.9-7.19l2.31,2.24c-4.88,4.82-10.16,8.06-18.35,8.06C596.76,81.6,587,71.1,587,57.84Z"/><path class="cls-1" d="M637.54,34.61H641V80.8h-3.43Z"/><path class="cls-1" d="M652.46,57.84v-.13c0-12.61,9.3-23.89,23.3-23.89S698.92,45,698.92,57.57v.14c0,12.6-9.31,23.89-23.3,23.89S652.46,70.44,652.46,57.84Zm42.9,0v-.13c0-11.42-8.32-20.79-19.74-20.79S656,46.16,656,57.57v.14c0,11.41,8.32,20.78,19.74,20.78S695.36,69.26,695.36,57.84Z"/><path class="cls-1" d="M706.64,74.07l2.25-2.57c5.08,4.69,9.77,6.86,16.56,6.86s11.68-3.89,11.68-9.17v-.13c0-4.89-2.57-7.72-13.06-9.84-11.09-2.24-15.58-6-15.58-13v-.13c0-6.86,6.27-12.14,14.85-12.14a23.05,23.05,0,0,1,15.84,5.61L737,42.26a19.88,19.88,0,0,0-13.79-5.21c-6.8,0-11.29,3.89-11.29,8.71v.13c0,4.89,2.51,7.86,13.47,10.1,10.69,2.18,15.18,6,15.18,12.74v.13c0,7.46-6.41,12.6-15.31,12.6C717.86,81.46,712.19,79,706.64,74.07Z"/><path class="cls-2" d="M439,67.07c-2.65,3.32-5.94,5.36-9.84,5.36-5.11,0-8.6-3.49-8.6-7.52v-.09c0-4.9,4-7.06,8-8.93-2.91-3-3.91-5.24-3.91-7.35v-.09a6.25,6.25,0,0,1,6.61-6,6.11,6.11,0,0,1,6.44,5.86v.08c0,3-1.91,5.19-7.73,7.77l9,9.68a34.66,34.66,0,0,0,4.08-8.14l.78.25a33.93,33.93,0,0,1-4.32,8.47l5.07,5.49-.62.54Zm-.54-.58-9.26-10c-3.91,1.79-7.73,3.7-7.73,8.31v.09c0,3.53,3,6.69,7.69,6.69C432.82,71.6,436,69.6,438.47,66.49Zm-1.62-18.12v-.08a5.29,5.29,0,0,0-5.56-5.07,5.44,5.44,0,0,0-5.74,5.19v.08c0,2,.92,4.08,3.87,7.07C435.11,53.06,436.85,51.15,436.85,48.37Z"/></g></g></svg>