<svg xmlns="http://www.w3.org/2000/svg" viewBox="0 0 35 35"><defs><style>.cls-1{fill:#f5b506;}</style></defs><title>usuario</title><g id="Capa_2" data-name="Capa 2"><g id="Capa_1-2" data-name="Capa 1"><path class="cls-1" d="M35,17.5A17.5,17.5,0,1,0,5.68,30.39l0,0,.57.48.12.09c.3.25.61.48.93.71l.31.22c.34.23.69.46,1,.67l.23.14c.39.22.79.43,1.2.62l.09,0a17.62,17.62,0,0,0,4.23,1.34l.12,0q.69.12,1.4.19l.17,0c.47,0,.95.06,1.43.06s.95,0,1.41-.06h.18c.47,0,.93-.11,1.39-.18l.12,0a17.24,17.24,0,0,0,4.17-1.31l.15-.07c.39-.19.78-.39,1.15-.6l.28-.16c.34-.2.68-.41,1-.64l.35-.25c.28-.2.56-.41.82-.62l.18-.14.58-.49,0,0A17.44,17.44,0,0,0,35,17.5Zm-33.73,0a16.23,16.23,0,1,1,27,12.13,4.6,4.6,0,0,0-.57-.34L22.3,26.6a1.41,1.41,0,0,1-.78-1.27V23.44c.12-.15.26-.33.39-.52a12.91,12.91,0,0,0,1.67-3.26,2.31,2.31,0,0,0,1.33-2.09V15.32a2.33,2.33,0,0,0-.56-1.51v-3a5.15,5.15,0,0,0-1.2-3.73c-1.17-1.34-3.07-2-5.64-2s-4.47.68-5.64,2a5.15,5.15,0,0,0-1.2,3.73v3a2.32,2.32,0,0,0-.56,1.51v2.26a2.32,2.32,0,0,0,.85,1.8,11.86,11.86,0,0,0,2,4.06v1.84a1.42,1.42,0,0,1-.74,1.25l-5,2.74a4.44,4.44,0,0,0-.48.3A16.19,16.19,0,0,1,1.27,17.5ZM27,30.63l-.68.47L26,31.3c-.3.19-.61.36-.92.53l-.21.1a16.18,16.18,0,0,1-2.22.94l-.08,0c-.4.13-.8.25-1.21.35h0c-.41.1-.83.19-1.25.26h0c-.39.06-.8.11-1.19.15l-.21,0c-.39,0-.79,0-1.19,0s-.8,0-1.21,0l-.21,0c-.4,0-.81-.08-1.2-.15h-.05a16.51,16.51,0,0,1-2.48-.62l-.07,0c-.4-.13-.8-.29-1.18-.45h0c-.37-.16-.73-.33-1.08-.52l-.14-.07c-.33-.17-.64-.36-1-.56l-.28-.18c-.29-.19-.58-.38-.85-.59l-.08-.07.06,0,5-2.74a2.7,2.7,0,0,0,1.4-2.36V23L14,22.8a10.61,10.61,0,0,1-1.91-4l-.06-.25-.22-.14a1.05,1.05,0,0,1-.49-.89V15.32a1.06,1.06,0,0,1,.35-.78l.21-.19V10.72a3.84,3.84,0,0,1,.89-2.78c.92-1.05,2.5-1.58,4.69-1.58s3.75.53,4.67,1.57a3.9,3.9,0,0,1,.9,2.79v3.63l.21.19a1,1,0,0,1,.35.78v2.26a1.07,1.07,0,0,1-.75,1l-.32.1-.1.32a11.79,11.79,0,0,1-1.59,3.2c-.17.24-.33.44-.47.61l-.16.18v2.36a2.68,2.68,0,0,0,1.49,2.41l5.39,2.69.1.05-.21.15Zm0,0"/></g></g></svg>